<svg width="64" height="64" viewBox="0 0 64 64" fill="none" xmlns="http://www.w3.org/2000/svg">
<g clip-path="url(#clip0_34_4302)">
<rect x="0.00012207" y="0.00195312" width="64" height="64" rx="12" fill="#EBEFF4"/>
<mask id="mask0_34_4302" style="mask-type:alpha" maskUnits="userSpaceOnUse" x="0" y="0" width="64" height="64">
<rect width="64" height="64" rx="12" fill="#F0F2F5"/>
</mask>
<g mask="url(#mask0_34_4302)">
<path fill-rule="evenodd" clip-rule="evenodd" d="M71.3279 13.091L59.9588 30.1446C59.5671 30.7322 59.0064 31.1872 58.3507 31.4494L53.8454 33.2516L50.6931 43.654C50.1285 45.5172 48.149 46.5585 46.2938 45.9682L32.445 41.5617L24.5627 61.2676C23.7061 63.409 21.0453 64.146 19.2091 62.7505L12.4623 57.6229L0.471011 69.2615L-2.23047 66.4781L10.0001 54.6072C11.2386 53.4052 13.1696 53.2886 14.5438 54.3329L21.1505 59.354L28.9776 39.7863C29.6572 38.0872 31.5335 37.2013 33.2773 37.7562L47.0951 42.1527L50.1874 31.9483C50.4949 30.9334 51.2471 30.1133 52.2318 29.7194L56.7983 27.8928L68.1005 10.9395L71.3279 13.091Z" fill="white"/>
<path d="M52.0702 8.55597C53.4092 8.55597 54.4935 9.43652 54.4935 10.5281C54.4935 10.7211 54.5702 10.9062 54.7067 11.0427C54.8431 11.1792 55.0282 11.2558 55.2213 11.2558C55.4143 11.2558 55.5994 11.1792 55.7358 11.0427C55.8723 10.9062 55.949 10.7211 55.949 10.5281C55.9064 9.68551 55.5664 8.88531 54.9895 8.26973C54.4125 7.65415 53.636 7.26307 52.7979 7.16601V5.84882C52.7979 5.65582 52.7213 5.47072 52.5848 5.33424C52.4483 5.19777 52.2632 5.12109 52.0702 5.12109C51.8772 5.12109 51.6921 5.19777 51.5556 5.33424C51.4191 5.47072 51.3425 5.65582 51.3425 5.84882V7.16601C50.5044 7.26307 49.7279 7.65415 49.1509 8.26973C48.574 8.88531 48.234 9.68551 48.1914 10.5281C48.1914 12.4129 49.9307 13.9557 52.0702 13.9557C53.4092 13.9557 54.4935 14.8363 54.4935 15.9279C54.4935 17.0194 53.4092 17.9 52.0702 17.9C50.7312 17.9 49.6469 17.0122 49.6469 15.9279C49.6469 15.7348 49.5702 15.5497 49.4337 15.4133C49.2972 15.2768 49.1121 15.2001 48.9191 15.2001C48.7261 15.2001 48.541 15.2768 48.4046 15.4133C48.2681 15.5497 48.1914 15.7348 48.1914 15.9279C48.2369 16.7695 48.5778 17.5682 49.1542 18.1832C49.7306 18.7982 50.5055 19.1901 51.3425 19.29V20.6071C51.3425 20.8001 51.4191 20.9852 51.5556 21.1217C51.6921 21.2582 51.8772 21.3349 52.0702 21.3349C52.2632 21.3349 52.4483 21.2582 52.5848 21.1217C52.7213 20.9852 52.7979 20.8001 52.7979 20.6071V19.29C53.6349 19.1901 54.4098 18.7982 54.9862 18.1832C55.5626 17.5682 55.9035 16.7695 55.949 15.9279C55.949 14.0358 54.2097 12.5003 52.0702 12.5003C50.7312 12.5003 49.6469 11.6124 49.6469 10.5281C49.6469 9.4438 50.7021 8.55597 52.0702 8.55597Z" fill="white"/>
<path d="M78.517 39.6734L41.5 47.5L-17.2891 -1.33868L78.517 -1.72656V39.6734Z" fill="url(#paint0_linear_34_4302)"/>
</g>
<path d="M29.5313 26.88H43.999V41.84H29.5313V26.88Z" fill="#EBEFF4"/>
<path d="M33.8484 4.69361C33.6904 4.36417 33.3988 4.12014 33.0464 4.03473C32.6939 3.94932 32.3172 4.02253 32.0256 4.24216C25.6942 8.97628 18.0018 13.32 9.10626 17.2C19.7882 15.5162 28.9146 13.0759 36.3397 9.89139L33.8484 4.69361Z" fill="url(#paint1_linear_34_4302)"/>
<path d="M41.2584 17.1499C41.6128 17.1499 41.9549 17.175 42.297 17.2L40.8919 11.1274C40.8064 10.7643 40.5742 10.4513 40.2443 10.2885C39.9145 10.1257 39.5357 10.1132 39.2058 10.276C33.1335 13.0932 25.9005 15.3845 17.6167 17.1499H41.2584Z" fill="url(#paint2_linear_34_4302)"/>
<path d="M34.0028 33.9644C33.7644 36.3237 35.6718 37.44 38.041 37.44L44 37.44V31.28H38.2198C36.1039 31.28 34.204 31.91 34.0028 33.9644ZM38.7399 33.6885C38.8293 33.7248 38.9113 33.7756 38.9783 33.8482C39.0156 33.8772 39.0454 33.9135 39.0752 33.9571C39.0975 33.9934 39.1273 34.037 39.1422 34.0805C39.1646 34.1241 39.1795 34.1749 39.1869 34.2184C39.1944 34.262 39.2018 34.3128 39.2018 34.3564C39.2018 34.4072 39.1944 34.458 39.1869 34.5016C39.1795 34.5451 39.1646 34.5959 39.1422 34.6395C39.1273 34.683 39.0975 34.7266 39.0752 34.7629C39.0454 34.8065 39.0156 34.8428 38.9783 34.8718C38.9113 34.9444 38.8293 34.9952 38.7399 35.0315C38.6505 35.0678 38.5536 35.0823 38.4568 35.0823C38.3599 35.0823 38.2631 35.0678 38.1662 35.0315C38.0768 34.9952 37.9949 34.9444 37.9278 34.8718C37.8905 34.8428 37.8607 34.8065 37.8384 34.7629C37.8086 34.7266 37.7862 34.683 37.7639 34.6395C37.749 34.5959 37.7341 34.5451 37.7266 34.5016C37.7117 34.458 37.7117 34.4072 37.7117 34.3564C37.7117 34.3128 37.7117 34.262 37.7266 34.2184C37.7341 34.1749 37.749 34.1241 37.7639 34.0805C37.7862 34.037 37.8086 33.9934 37.8384 33.9571C37.8607 33.9135 37.8905 33.8772 37.9278 33.8482C37.9949 33.7756 38.0768 33.7248 38.1662 33.6885C38.3525 33.6159 38.5611 33.6159 38.7399 33.6885Z" fill="url(#paint3_linear_34_4302)"/>
<path d="M39.7438 34.36C39.7438 35.089 39.1723 35.68 38.4673 35.68C37.7622 35.68 37.1907 35.089 37.1907 34.36C37.1907 33.631 37.7622 33.04 38.4673 33.04C39.1723 33.04 39.7438 33.631 39.7438 34.36Z" fill="#EBEFF4"/>
<path fill-rule="evenodd" clip-rule="evenodd" d="M6.49994 18.96H41.4991C42.8798 18.96 43.999 20.0435 43.999 21.38V29.5992L36.9244 29.52C34.5074 29.52 32.3373 31.3504 32.1075 33.8408C31.8351 36.7008 34.0138 39.1208 36.7201 39.1208L43.999 39.2V45.58C43.999 46.9165 42.8798 48 41.4991 48H6.49994C5.11926 48 4 46.9165 4 45.58V21.38C4 20.0435 5.11926 18.96 6.49994 18.96Z" fill="url(#paint4_linear_34_4302)"/>
</g>
<defs>
<linearGradient id="paint0_linear_34_4302" x1="58.3473" y1="5.92798" x2="58.3473" y2="48.9825" gradientUnits="userSpaceOnUse">
<stop stop-color="#010101" stop-opacity="0"/>
<stop offset="1" stop-color="#1D1D1D" stop-opacity="0.17"/>
</linearGradient>
<linearGradient id="paint1_linear_34_4302" x1="11.2772" y1="19.1017" x2="16.8836" y2="50.2271" gradientUnits="userSpaceOnUse">
<stop stop-color="#1CCC5B"/>
<stop offset="1" stop-color="#1EA84F"/>
</linearGradient>
<linearGradient id="paint2_linear_34_4302" x1="11.2772" y1="19.1017" x2="16.8836" y2="50.2271" gradientUnits="userSpaceOnUse">
<stop stop-color="#1CCC5B"/>
<stop offset="1" stop-color="#1EA84F"/>
</linearGradient>
<linearGradient id="paint3_linear_34_4302" x1="10.636" y1="-2.00975" x2="29.8996" y2="53.9614" gradientUnits="userSpaceOnUse">
<stop stop-color="#1CCC5B"/>
<stop offset="1" stop-color="#1EA84F"/>
</linearGradient>
<linearGradient id="paint4_linear_34_4302" x1="11.2772" y1="19.1017" x2="16.8836" y2="50.2271" gradientUnits="userSpaceOnUse">
<stop stop-color="#1CCC5B"/>
<stop offset="1" stop-color="#1EA84F"/>
</linearGradient>
<clipPath id="clip0_34_4302">
<rect width="64" height="64" fill="white"/>
</clipPath>
</defs>
</svg>
