<svg width="64" height="64" viewBox="0 0 64 64" fill="none" xmlns="http://www.w3.org/2000/svg">
<g clip-path="url(#clip0_34_4365)">
<rect width="64" height="64" rx="12" fill="#EBEFF4"/>
<mask id="mask0_34_4365" style="mask-type:alpha" maskUnits="userSpaceOnUse" x="0" y="0" width="65" height="65">
<rect x="0.000244141" y="0.00195312" width="64" height="64" rx="12" fill="#F0F2F5"/>
</mask>
<g mask="url(#mask0_34_4365)">
<rect x="-5.72095" y="12.123" width="75.2485" height="3.10303" rx="1.55152" fill="white"/>
<rect x="-5.72095" y="43.1533" width="75.2485" height="3.10303" rx="1.55152" fill="white"/>
<rect x="-5.72095" y="27.6382" width="75.2485" height="3.10303" rx="1.55152" fill="white"/>
<path d="M76.0609 30.9697L14.0002 45.3212L21.3699 11.1879L26.4124 -2L76.0609 -0.448485V30.9697Z" fill="url(#paint0_linear_34_4365)"/>
</g>
<circle cx="53.0912" cy="54.7897" r="2.32727" fill="#D8D7D9"/>
<circle cx="42.4246" cy="54.7897" r="2.32727" fill="#D8D7D9"/>
<circle cx="31.7579" cy="54.7897" r="2.32727" fill="#D8D7D9"/>
<path d="M4 23.8333C4 12.5003 14.0104 4 25.5 4C36.9896 4 47 12.5003 47 23.8333C47 35.1663 36.9896 43.6667 25.5 43.6667C24.096 43.6667 22.7222 43.543 21.3914 43.305C21.1914 43.4753 20.8474 43.7833 20.4238 44.1077C19.2005 45.0433 17.4353 46 14.75 46C14.1798 46 13.6329 45.7542 13.2297 45.3166C12.8265 44.879 12.6 44.2855 12.6 43.6667C12.6 42.3833 12.9075 40.7873 12.3979 39.5693C7.39055 36.0203 4 30.362 4 23.8333Z" fill="url(#paint1_linear_34_4365)"/>
<rect x="15" y="19" width="21" height="3" rx="1.5" fill="#EBEFF4"/>
<rect x="15" y="26" width="16" height="3" rx="1.5" fill="#EBEFF4"/>
</g>
<defs>
<linearGradient id="paint0_linear_34_4365" x1="43.2889" y1="-19.1319" x2="43.2889" y2="44.5455" gradientUnits="userSpaceOnUse">
<stop stop-color="#010101" stop-opacity="0"/>
<stop offset="1" stop-color="#1D1D1D" stop-opacity="0.17"/>
</linearGradient>
<linearGradient id="paint1_linear_34_4365" x1="11.8232" y1="4.20488" x2="22.461" y2="48.1037" gradientUnits="userSpaceOnUse">
<stop offset="0.125" stop-color="#1CCC5B"/>
<stop offset="1" stop-color="#1EA84F"/>
</linearGradient>
<clipPath id="clip0_34_4365">
<rect width="64" height="64" fill="white"/>
</clipPath>
</defs>
</svg>
