<svg width="64" height="64" viewBox="0 0 64 64" fill="none" xmlns="http://www.w3.org/2000/svg">
<g clip-path="url(#clip0_34_4390)">
<rect x="0.00012207" y="0.00195312" width="64" height="64" rx="12" fill="#EBEFF4"/>
<mask id="mask0_34_4390" style="mask-type:alpha" maskUnits="userSpaceOnUse" x="0" y="0" width="64" height="64">
<rect width="64" height="64" rx="12" fill="#F0F2F5"/>
</mask>
<g mask="url(#mask0_34_4390)">
<path d="M60.311 31.3496C60.4446 31.581 60.5149 31.8434 60.5149 32.1106C60.5149 32.3778 60.4446 32.6403 60.311 32.8717L41.6194 63.6184C41.4786 63.8389 41.2853 64.021 41.0569 64.1485C40.8285 64.276 40.572 64.3449 40.3104 64.349C40.0795 64.3419 39.8521 64.2902 39.6407 64.1968C39.3033 64.0316 39.0388 63.7475 38.8983 63.399C38.7578 63.0506 38.7512 62.6625 38.8796 62.3094L47.4644 38.4426L40.3408 38.5948C40.0954 38.6044 39.8517 38.5506 39.6331 38.4386C39.4145 38.3266 39.2284 38.1603 39.0927 37.9556C38.9414 37.7654 38.8421 37.539 38.8047 37.2988C38.7674 37.0586 38.7932 36.8129 38.8796 36.5857L46.0944 15.5805C46.1995 15.283 46.3927 15.0246 46.6484 14.8397C46.904 14.6548 47.2098 14.5521 47.5252 14.5454H59.002C59.2666 14.5447 59.5268 14.6129 59.7569 14.7434C59.9871 14.874 60.1792 15.0622 60.3145 15.2896C60.4497 15.517 60.5233 15.7758 60.528 16.0403C60.5328 16.3048 60.4685 16.566 60.3415 16.7981L52.7004 30.5581H58.9411C59.2213 30.5446 59.4995 30.612 59.7424 30.7524C59.9854 30.8927 60.1828 31.1001 60.311 31.3496Z" fill="white"/>
<path d="M74.474 34.4L23.5 44L-21.332 -3.61212L74.474 -4V34.4Z" fill="url(#paint0_linear_34_4390)"/>
</g>
<path d="M24 4C12.9543 4 4 12.9543 4 24C4 35.0457 12.9543 44 24 44C35.0457 44 44 35.0457 44 24C44 12.9543 35.0457 4 24 4Z" fill="url(#paint1_linear_34_4390)"/>
<path fill-rule="evenodd" clip-rule="evenodd" d="M24.0018 12.5723C25.1289 12.5723 26.0426 13.486 26.0426 14.6131V25.2253C26.0426 26.3524 25.1289 27.2661 24.0018 27.2661C22.8746 27.2661 21.9609 26.3524 21.9609 25.2253V14.6131C21.9609 13.486 22.8746 12.5723 24.0018 12.5723Z" fill="white"/>
<path fill-rule="evenodd" clip-rule="evenodd" d="M31.7578 25.2244C31.7578 26.3515 30.8441 27.2652 29.717 27.2652L24.0027 27.2652C22.8756 27.2652 21.9619 26.3515 21.9619 25.2244C21.9619 24.0973 22.8756 23.1836 24.0027 23.1836L29.717 23.1836C30.8441 23.1836 31.7578 24.0973 31.7578 25.2244Z" fill="white"/>
</g>
<defs>
<linearGradient id="paint0_linear_34_4390" x1="54.3043" y1="0.654547" x2="54.3043" y2="43.7091" gradientUnits="userSpaceOnUse">
<stop stop-color="#010101" stop-opacity="0"/>
<stop offset="1" stop-color="#1D1D1D" stop-opacity="0.17"/>
</linearGradient>
<linearGradient id="paint1_linear_34_4390" x1="11.2774" y1="4.19512" x2="21.6222" y2="45.8921" gradientUnits="userSpaceOnUse">
<stop stop-color="#1CCC5B"/>
<stop offset="1" stop-color="#1EA84F"/>
</linearGradient>
<clipPath id="clip0_34_4390">
<rect width="64" height="64" fill="white"/>
</clipPath>
</defs>
</svg>
