<svg width="180" height="22" viewBox="0 0 180 22" fill="none" xmlns="http://www.w3.org/2000/svg">
<path d="M179.138 4.83984L173.54 10.5598L179.999 17.1602H175.262L169.664 11.4403V17.1602H166.219V4.83984H169.664V9.67996L174.401 4.83984H179.138Z" fill="#1CCC5B"/>
<path d="M150.719 4.83984H153.517L160.192 11.6598V4.83984H163.637V17.1602H160.838L154.164 10.3397V17.1602H150.719V4.83984Z" fill="#1CCC5B"/>
<path fill-rule="evenodd" clip-rule="evenodd" d="M140.046 12.3205H144.168L142.107 7.40721L140.046 12.3205ZM138.016 17.1606H134.355L139.523 4.84082H144.69L149.857 17.1606H146.197L145.274 14.9607H138.938L138.016 17.1606Z" fill="#1CCC5B"/>
<path fill-rule="evenodd" clip-rule="evenodd" d="M124.449 9.23972V7.48002H128.755C129.231 7.48002 129.616 7.87391 129.616 8.35987C129.616 8.84583 129.231 9.23972 128.755 9.23972H124.449ZM124.449 14.5201V11.8799H129.186C129.9 11.8799 130.478 12.4707 130.478 13.2C130.478 13.9292 129.9 14.5201 129.186 14.5201H124.449ZM121.004 17.1602V4.83984H129.616C131.518 4.83984 133.061 6.21907 133.061 7.91964C133.061 8.72206 132.718 9.45313 132.155 10.0013C133.226 10.7214 133.922 11.886 133.922 13.2C133.922 15.3871 131.994 17.1602 129.616 17.1602H121.004Z" fill="#1CCC5B"/>
<path fill-rule="evenodd" clip-rule="evenodd" d="M108.948 7.48002H113.686C114.399 7.48063 114.977 8.07146 114.977 8.8001C114.977 9.52935 114.398 10.1202 113.685 10.1202H108.948V7.48002H108.948ZM114.116 4.83984C116.494 4.83984 118.422 6.61297 118.422 8.8001C118.422 10.7372 116.909 12.3494 114.912 12.6927L119.284 17.1602H114.547L108.949 11.4403V17.1602H105.504V4.83984H114.116Z" fill="#1CCC5B"/>
<path fill-rule="evenodd" clip-rule="evenodd" d="M96.0284 14.9599C98.4064 14.9599 100.335 13.1867 100.335 10.9996C100.335 8.81247 98.4064 7.03934 96.0284 7.03934C93.6504 7.03934 91.7223 8.81247 91.7223 10.9996C91.7223 13.1867 93.6498 14.9599 96.0284 14.9599ZM96.0284 17.6C100.309 17.6 103.779 14.6452 103.779 11.0002C103.779 7.35519 100.309 4.40039 96.0284 4.40039C91.7474 4.40039 88.2773 7.35519 88.2773 11.0002C88.2773 14.6452 91.7474 17.6 96.0284 17.6Z" fill="#1CCC5B"/>
<path d="M88.2782 4.83984L82.6796 10.5598L89.1393 17.1602H84.4024L78.8044 11.4403V17.1602H75.3594V4.83984H78.8044V9.67996L83.5413 4.83984H88.2782Z" fill="#1CCC5B"/>
<path d="M55.9805 4.83984V17.1602H59.4255V8.35987L62.655 17.1602H66.1L69.3296 8.35987V17.1602H72.7746V4.83984H67.1765L64.3772 12.4665L61.5785 4.83984H55.9805Z" fill="#1CCC5B"/>
<path fill-rule="evenodd" clip-rule="evenodd" d="M45.3077 12.3202H49.4294L47.3689 7.40697L45.3077 12.3202ZM43.2776 17.1604H39.6172L44.7844 4.84058H49.9516L55.1187 17.1604H51.4583L50.5358 14.9604H44.2002L43.2776 17.1604Z" fill="#1CCC5B"/>
<path d="M35.3098 4.83984H38.7548V17.1602H35.3098V12.3201H29.2809V17.1602H25.8359V4.83984H29.2809V9.67996H35.3098V4.83984Z" fill="#1CCC5B"/>
<path d="M8.61328 17.6001L15.073 0H21.5321L15.073 17.6001H8.61328Z" fill="#1CCC5B"/>
<path d="M0 21.9999L6.45913 4.40039H12.9189L6.45913 21.9999H0Z" fill="#1CCC5B"/>
</svg>
